<?xml version="1.0" encoding="UTF-8"?>
<svg width="262px" height="316px" viewBox="0 0 262 316" version="1.1" xmlns="http://www.w3.org/2000/svg" xmlns:xlink="http://www.w3.org/1999/xlink">
    <title>红包</title>
    <defs>
        <linearGradient x1="50%" y1="0%" x2="50%" y2="100%" id="linearGradient-1">
            <stop stop-color="#F89A58" offset="0%"></stop>
            <stop stop-color="#EF432C" offset="100%"></stop>
        </linearGradient>
        <rect id="path-2" x="0" y="0.755689189" width="160" height="238.04878" rx="23.4146341"></rect>
        <linearGradient x1="50%" y1="0%" x2="50%" y2="100%" id="linearGradient-4">
            <stop stop-color="#FFD84D" offset="0%"></stop>
            <stop stop-color="#FDA33A" offset="100%"></stop>
        </linearGradient>
        <linearGradient x1="50%" y1="0%" x2="50%" y2="100%" id="linearGradient-5">
            <stop stop-color="#FFCE6B" offset="0%"></stop>
            <stop stop-color="#FD9F39" offset="100%"></stop>
        </linearGradient>
        <linearGradient x1="50%" y1="42.3106498%" x2="68.1814133%" y2="61.5961291%" id="linearGradient-6">
            <stop stop-color="#F89A58" offset="0%"></stop>
            <stop stop-color="#EF432C" offset="100%"></stop>
        </linearGradient>
        <linearGradient x1="50%" y1="93.0001153%" x2="50%" y2="11.8420705%" id="linearGradient-7">
            <stop stop-color="#FFBA51" offset="0%"></stop>
            <stop stop-color="#EF8A2C" offset="100%"></stop>
        </linearGradient>
        <linearGradient x1="50%" y1="0%" x2="50%" y2="100%" id="linearGradient-8">
            <stop stop-color="#FFDB4D" offset="0%"></stop>
            <stop stop-color="#FD9F39" offset="100%"></stop>
        </linearGradient>
    </defs>
    <g id="页面-1" stroke="none" stroke-width="1" fill="none" fill-rule="evenodd">
        <g id="说明备份" transform="translate(-611.000000, -4614.000000)">
            <g id="编组-10" transform="translate(225.813821, 3582.000000)">
                <g id="红包" transform="translate(516.186179, 1189.500000) rotate(-345.000000) translate(-516.186179, -1189.500000) translate(436.186179, 1070.000000)">
                    <rect id="矩形备份-9" stroke="#FFC983" stroke-width="4" stroke-linecap="round" stroke-linejoin="round" x="-2" y="-1.24431081" width="164" height="242.04878" rx="23.4146341"></rect>
                    <mask id="mask-3" fill="white">
                        <use xlink:href="#path-2"></use>
                    </mask>
                    <use id="矩形" fill="url(#linearGradient-1)" xlink:href="#path-2"></use>
                    <path d="M78.1326829,175.411707 C79.3619512,176.149268 80.6263415,176.36 81.9258537,176.043902 C83.2253659,175.727805 84.2614634,174.797073 85.0341463,173.251707 L85.0341463,173.251707 L87.5629268,168.404878 C88.195122,167.140488 88.2829268,165.876098 87.8263415,164.611707 C87.3697561,163.347317 86.5970732,162.240976 85.5082927,161.292683 C84.4195122,160.34439 83.1726829,159.606829 81.7678049,159.08 C80.3629268,158.553171 79.0282927,158.412683 77.7639024,158.658537 C76.4995122,158.90439 75.4458537,159.589268 74.6029268,160.713171 C73.76,161.837073 73.3736585,163.522927 73.4439024,165.770732 C73.5141463,168.159024 74.0058537,170.178537 74.9190244,171.829268 C75.8321951,173.48 76.9034146,174.674146 78.1326829,175.411707 Z M103.157073,171.249756 L153.943415,170.617561 C155.207805,170.617561 156.261463,170.178537 157.10439,169.300488 C157.947317,168.422439 158.36878,167.35122 158.36878,166.086829 C158.36878,164.892683 157.929756,163.856585 157.051707,162.978537 C156.173659,162.100488 155.102439,161.661463 153.838049,161.661463 L153.838049,161.661463 L103.051707,162.293659 C101.787317,162.293659 100.716098,162.732683 99.8380488,163.610732 C98.96,164.48878 98.5209756,165.56 98.5209756,166.82439 C98.5912195,168.018537 99.0653659,169.054634 99.9434146,169.932683 C100.821463,170.810732 101.892683,171.249756 103.157073,171.249756 L103.157073,171.249756 Z M80.3980488,252.592195 C82.1541463,252.592195 83.7170732,252.276098 85.0868293,251.643902 C86.4565854,251.011707 87.6156098,250.16878 88.5639024,249.115122 C89.5121951,248.061463 90.2146341,246.867317 90.6712195,245.532683 C91.1278049,244.198049 91.3560976,242.793171 91.3560976,241.318049 L91.3560976,241.318049 L91.3560976,216.13561 C91.3560976,213.747317 90.6360976,211.64 89.1960976,209.813659 C87.7560976,207.987317 85.9121951,206.722927 83.6643902,206.020488 L83.6643902,206.020488 L95.7814634,192.322927 C97.2565854,190.777561 98.1170732,189.074146 98.3629268,187.212683 C98.6087805,185.35122 98.3629268,183.647805 97.6253659,182.102439 C96.8878049,180.557073 95.7287805,179.292683 94.1482927,178.309268 C92.5678049,177.325854 90.6887805,176.90439 88.5112195,177.044878 L88.5112195,177.044878 L65.3307317,178.414634 C64.1365854,178.484878 63.1180488,178.976585 62.275122,179.889756 C61.4321951,180.802927 61.0458537,181.891707 61.1160976,183.156098 C61.1863415,184.350244 61.6780488,185.35122 62.5912195,186.159024 C63.5043902,186.966829 64.5580488,187.370732 65.7521951,187.370732 L65.7521951,187.370732 L76.604878,186.738537 L62.3804878,203.070244 C60.5541463,204.966829 59.6760976,207.179512 59.7463415,209.708293 C59.8165854,212.237073 60.764878,214.34439 62.5912195,216.030244 C63.5746341,216.943415 64.6809756,217.57561 65.9102439,217.926829 C67.1395122,218.278049 68.3863415,218.383415 69.6507317,218.242927 L69.6507317,218.242927 L69.6507317,241.318049 C69.6507317,242.793171 69.8614634,244.198049 70.2829268,245.532683 C70.7043902,246.867317 71.3541463,248.061463 72.2321951,249.115122 C73.1102439,250.16878 74.2165854,251.011707 75.5512195,251.643902 C76.8858537,252.276098 78.5014634,252.592195 80.3980488,252.592195 Z M111.270244,204.44 L145.830244,204.123902 C147.164878,204.123902 148.446829,203.842927 149.676098,203.280976 C150.905366,202.719024 151.959024,201.999024 152.837073,201.120976 C153.715122,200.242927 154.417561,199.206829 154.94439,198.012683 C155.47122,196.818537 155.734634,195.519024 155.734634,194.114146 L155.734634,194.114146 L155.734634,187.476098 C155.734634,184.736585 154.75122,182.383415 152.78439,180.416585 C150.817561,178.449756 148.46439,177.466341 145.724878,177.466341 L145.724878,177.466341 L111.164878,177.887805 C109.76,177.887805 108.460488,178.15122 107.266341,178.678049 C106.072195,179.204878 105.036098,179.924878 104.158049,180.838049 C103.28,181.75122 102.577561,182.804878 102.050732,183.999024 C101.523902,185.193171 101.260488,186.457561 101.260488,187.792195 L101.260488,187.792195 L101.260488,194.430244 C101.260488,197.24 102.20878,199.593171 104.105366,201.489756 C106.072195,203.456585 108.460488,204.44 111.270244,204.44 L111.270244,204.44 Z M121.174634,196.959024 C120.542439,196.959024 120.050732,196.783415 119.699512,196.432195 C119.348293,196.080976 119.172683,195.589268 119.172683,194.957073 L119.172683,194.957073 L119.172683,187.265366 C119.172683,185.930732 119.804878,185.263415 121.069268,185.263415 L121.069268,185.263415 L136.03122,184.947317 C136.522927,184.947317 137.014634,185.122927 137.506341,185.474146 C137.857561,185.965854 138.033171,186.457561 138.033171,186.949268 L138.033171,186.949268 L138.033171,194.746341 C138.033171,195.308293 137.84,195.782439 137.453659,196.16878 C137.067317,196.555122 136.593171,196.748293 136.03122,196.748293 L136.03122,196.748293 L121.174634,196.959024 Z M95.1492683,212.921951 C96.2029268,212.886829 97.1336585,212.553171 97.9414634,211.920976 C98.7492683,211.28878 99.3112195,210.463415 99.6273171,209.444878 C99.9434146,208.426341 99.715122,207.49561 98.942439,206.652683 L98.942439,206.652683 L94.8331707,201.91122 C94.2712195,201.279024 93.5512195,200.998049 92.6731707,201.068293 C91.795122,201.138537 90.9873171,201.437073 90.2497561,201.963902 C89.5121951,202.490732 89.0204878,203.210732 88.7746341,204.123902 C88.5287805,205.037073 88.7921951,206.090732 89.564878,207.284878 L89.564878,207.284878 L92.4097561,211.394146 C93.182439,212.447805 94.0956098,212.957073 95.1492683,212.921951 Z M109.373659,250.274146 L148.569756,249.852683 C151.87122,249.852683 154.382439,248.834146 156.103415,246.797073 C157.82439,244.76 158.684878,242.266341 158.684878,239.316098 L158.684878,239.316098 L158.684878,220.244878 C158.684878,218.769756 158.509268,217.4 158.158049,216.13561 C157.806829,214.87122 157.227317,213.747317 156.419512,212.763902 C155.611707,211.780488 154.57561,211.007805 153.31122,210.445854 C152.046829,209.883902 150.466341,209.602927 148.569756,209.602927 L148.569756,209.602927 L108.32,210.340488 C105.08878,210.340488 102.612683,211.359024 100.891707,213.396098 C99.1707317,215.433171 98.3102439,217.926829 98.3102439,220.877073 L98.3102439,220.877073 L98.3102439,239.632195 C98.3102439,241.107317 98.5912195,242.494634 99.1531707,243.794146 C99.715122,245.093659 100.487805,246.217561 101.47122,247.165854 C102.454634,248.114146 103.613659,248.869268 104.948293,249.43122 C106.282927,249.993171 107.758049,250.274146 109.373659,250.274146 L109.373659,250.274146 Z M140.878049,225.723902 C140.316098,225.583415 139.929756,225.513171 139.719024,225.513171 L139.719024,225.513171 L135.820488,225.618537 L135.820488,217.821463 L138.138537,217.716098 C138.91122,217.645854 139.560976,217.979512 140.087805,218.717073 C140.614634,219.454634 140.878049,220.315122 140.878049,221.298537 L140.878049,221.298537 L140.878049,225.723902 Z M116.117073,226.356098 L116.117073,221.825366 C116.117073,220.841951 116.380488,220.034146 116.907317,219.401951 C117.434146,218.769756 118.083902,218.418537 118.856585,218.348293 L118.856585,218.348293 L121.174634,218.348293 L121.174634,226.145366 L116.117073,226.356098 Z M138.138537,241.844878 L135.820488,241.844878 L135.820488,233.626341 L139.82439,233.520976 C139.964878,233.520976 140.140488,233.503415 140.35122,233.468293 C140.561951,233.433171 140.737561,233.41561 140.878049,233.41561 L140.878049,233.41561 L140.878049,238.367805 C140.878049,239.35122 140.614634,240.176585 140.087805,240.843902 C139.560976,241.51122 138.91122,241.844878 138.138537,241.844878 L138.138537,241.844878 Z M118.856585,242.160976 C118.083902,242.160976 117.434146,241.827317 116.907317,241.16 C116.380488,240.492683 116.117073,239.667317 116.117073,238.683902 L116.117073,238.683902 L116.117073,234.258537 L121.174634,234.153171 L121.174634,242.05561 L118.856585,242.160976 Z" id="福" fill="url(#linearGradient-4)" fill-rule="nonzero" opacity="0.500186012" mask="url(#mask-3)"></path>
                    <rect id="矩形备份-52" stroke="url(#linearGradient-5)" stroke-width="3.90243902" mask="url(#mask-3)" x="13.6585366" y="14.4142258" width="132.682927" height="210.731707" rx="23.4146341"></rect>
                    <path d="M-19.5121951,-3.14674984 L179.512195,-3.14674984 C179.512195,39.9584014 144.568566,74.9020307 101.463415,74.9020307 L58.5365854,74.9020307 C15.4314342,74.9020307 -19.5121951,39.9584014 -19.5121951,-3.14674984 L-19.5121951,-3.14674984 L-19.5121951,-3.14674984 Z" id="矩形备份-55" fill="url(#linearGradient-6)" mask="url(#mask-3)"></path>
                    <path d="M-19.5121951,-3.14674984 L179.512195,-3.14674984 C179.512195,39.9584014 144.568566,74.9020307 101.463415,74.9020307 L58.5365854,74.9020307 C15.4314342,74.9020307 -19.5121951,39.9584014 -19.5121951,-3.14674984 L-19.5121951,-3.14674984 L-19.5121951,-3.14674984 Z" id="矩形备份-99" stroke="#FFC865" stroke-width="3.90243902" stroke-linecap="round" stroke-linejoin="round" mask="url(#mask-3)"></path>
                    <circle id="椭圆形" stroke="url(#linearGradient-8)" stroke-width="7.80487805" fill="url(#linearGradient-7)" mask="url(#mask-3)" cx="81.9512195" cy="78.8044697" r="19.5121951"></circle>
                </g>
            </g>
        </g>
    </g>
</svg>